<?xml version="1.0" standalone="no"?>
<!DOCTYPE svg PUBLIC "-//W3C//DTD SVG 20010904//EN"
 "http://www.w3.org/TR/2001/REC-SVG-20010904/DTD/svg10.dtd">
<svg version="1.0" xmlns="http://www.w3.org/2000/svg"
 width="518.000000pt" height="482.000000pt" viewBox="0 0 518.000000 482.000000"
 preserveAspectRatio="xMidYMid meet">
<metadata>
Created by potrace 1.16, written by Peter Selinger 2001-2019
</metadata>
<g transform="translate(0.000000,482.000000) scale(0.100000,-0.100000)"
fill="#000000" stroke="none">
<path d="M2390 4673 c-927 -99 -1696 -757 -1925 -1648 -53 -207 -69 -333 -69
-560 -1 -367 66 -658 223 -980 286 -584 819 -1019 1438 -1174 215 -54 317 -66
553 -66 242 1 349 14 568 71 777 201 1392 828 1586 1615 45 185 60 316 60 534
0 293 -43 533 -140 782 -300 778 -975 1310 -1797 1418 -108 14 -398 19 -497 8z
m465 -173 c845 -97 1545 -708 1756 -1534 41 -161 51 -241 56 -451 6 -238 -8
-368 -57 -561 -203 -787 -830 -1367 -1640 -1516 -166 -31 -524 -31 -690 0
-379 70 -707 225 -993 471 -382 328 -634 800 -697 1305 -16 131 -13 405 5 531
88 593 408 1100 901 1428 254 169 586 291 887 326 104 12 368 12 472 1z"/>
<path d="M2456 4029 c-696 -73 -1269 -598 -1408 -1292 -30 -147 -32 -449 -5
-597 114 -609 579 -1111 1174 -1265 449 -117 918 -37 1308 223 133 89 338 292
424 422 125 188 211 392 253 603 30 151 32 441 4 592 -155 830 -916 1402
-1750 1314z m56 -685 c6 -44 11 -189 12 -324 1 -228 -1 -250 -21 -316 -13 -40
-40 -94 -60 -122 l-38 -50 7 -208 c10 -285 35 -653 53 -760 38 -233 -4 -370
-100 -326 -65 30 -76 136 -45 407 27 229 37 592 21 750 l-11 109 -50 43 c-61
54 -103 136 -131 258 -27 116 -38 500 -17 579 14 53 31 68 43 39 4 -10 11
-107 14 -215 6 -193 13 -230 40 -214 8 5 10 72 9 211 -3 179 -1 206 14 221 32
33 42 -14 42 -216 1 -184 7 -223 30 -200 7 7 12 75 14 198 3 207 6 232 27 232
32 0 39 -42 40 -234 0 -131 3 -190 11 -193 21 -7 27 31 33 222 4 105 10 196
15 203 17 27 37 -14 48 -94z m305 37 c35 -52 59 -139 118 -426 94 -458 85
-601 -45 -765 -14 -18 -24 -58 -36 -150 -20 -157 -14 -345 16 -480 12 -52 22
-125 23 -162 2 -61 0 -69 -27 -97 -52 -54 -105 -51 -128 9 -26 67 -29 156 -12
399 16 222 16 286 4 692 -19 656 1 1033 54 1016 6 -2 21 -18 33 -36z"/>
<path d="M1876 788 c-73 -64 -11 -166 79 -132 19 8 45 55 45 84 0 29 -44 70
-74 70 -14 0 -36 -10 -50 -22z"/>
<path d="M2051 714 c-54 -69 4 -158 84 -128 20 8 45 56 45 87 0 61 -91 90
-129 41z"/>
<path d="M2221 630 c-15 -84 -12 -90 56 -90 37 0 44 4 58 30 34 66 10 117 -62
127 l-39 5 -13 -72z"/>
<path d="M2807 673 c-25 -4 -27 -8 -23 -36 3 -18 8 -54 11 -80 6 -44 9 -48 28
-43 12 3 30 6 40 6 55 0 77 91 32 135 -24 25 -32 26 -88 18z"/>
</g>
</svg>
